<svg width="19" height="16" viewBox="0 0 19 16" fill="none" xmlns="http://www.w3.org/2000/svg">
<path d="M18.6633 8.80975L11.8245 15.6648C11.6104 15.8794 11.32 16 11.0171 16C10.7143 16 10.4239 15.8794 10.2098 15.6648C9.99566 15.4502 9.87537 15.159 9.87537 14.8555C9.87537 14.552 9.99566 14.2609 10.2098 14.0462L15.1024 9.14393H1.1398C0.837509 9.14393 0.547595 9.02356 0.333841 8.8093C0.120086 8.59504 0 8.30444 0 8.00143C0 7.69842 0.120086 7.40781 0.333841 7.19355C0.547595 6.97929 0.837509 6.85892 1.1398 6.85892H15.1024L10.2117 1.95376C9.99756 1.73913 9.87727 1.44802 9.87727 1.14449C9.87727 0.840951 9.99756 0.549846 10.2117 0.335212C10.4258 0.120579 10.7162 3.19828e-09 11.019 0C11.3219 -3.19828e-09 11.6123 0.120579 11.8264 0.335212L18.6652 7.19025C18.7715 7.29653 18.8558 7.42282 18.9132 7.56185C18.9707 7.70088 19.0002 7.84991 19 8.00039C18.9998 8.15088 18.97 8.29984 18.9122 8.43874C18.8544 8.57763 18.7699 8.70372 18.6633 8.80975Z" fill="#EBFF8D"/>
</svg>
