<svg width="20" height="20" viewBox="0 0 20 20" fill="none" xmlns="http://www.w3.org/2000/svg">
<path d="M10 0C8.02219 0 6.08879 0.58649 4.4443 1.6853C2.79981 2.78412 1.51809 4.3459 0.761209 6.17316C0.00433284 8.00042 -0.1937 10.0111 0.192152 11.9509C0.578004 13.8907 1.53041 15.6725 2.92894 17.0711C4.32746 18.4696 6.10929 19.422 8.0491 19.8078C9.98891 20.1937 11.9996 19.9957 13.8268 19.2388C15.6541 18.4819 17.2159 17.2002 18.3147 15.5557C19.4135 13.9112 20 11.9778 20 10C19.9972 7.34869 18.9427 4.80678 17.068 2.93202C15.1932 1.05727 12.6513 0.00279983 10 0ZM13.899 10.6327L8.89904 14.0942C8.78361 14.174 8.64855 14.2208 8.50847 14.2293C8.36839 14.2379 8.22864 14.208 8.10435 14.1428C7.98006 14.0776 7.87596 13.9797 7.80333 13.8596C7.73071 13.7395 7.69231 13.6019 7.69231 13.4615V6.53846C7.69231 6.39812 7.73071 6.26046 7.80333 6.14037C7.87596 6.02029 7.98006 5.92236 8.10435 5.8572C8.22864 5.79203 8.36839 5.76211 8.50847 5.77067C8.64855 5.77923 8.78361 5.82595 8.89904 5.90577L13.899 9.36731C14.0014 9.43807 14.085 9.53261 14.1428 9.64281C14.2006 9.75301 14.2308 9.87557 14.2308 10C14.2308 10.1244 14.2006 10.247 14.1428 10.3572C14.085 10.4674 14.0014 10.5619 13.899 10.6327Z" fill="#020817"/>
</svg>
