<svg width="33" height="24" viewBox="0 0 33 24" fill="none" xmlns="http://www.w3.org/2000/svg">
<path d="M12 0H2.52632C1.8563 0 1.21372 0.266165 0.739941 0.739941C0.266165 1.21372 0 1.8563 0 2.52632V12.6316C0 13.3016 0.266165 13.9442 0.739941 14.418C1.21372 14.8917 1.8563 15.1579 2.52632 15.1579H12V16.4211C12 17.7611 11.4677 19.0462 10.5201 19.9938C9.57257 20.9414 8.28741 21.4737 6.94737 21.4737C6.61236 21.4737 6.29107 21.6068 6.05418 21.8437C5.81729 22.0805 5.68421 22.4018 5.68421 22.7368C5.68421 23.0719 5.81729 23.3931 6.05418 23.63C6.29107 23.8669 6.61236 24 6.94737 24C8.95679 23.9979 10.8833 23.1987 12.3042 21.7779C13.7251 20.357 14.5242 18.4305 14.5263 16.4211V2.52632C14.5263 1.8563 14.2602 1.21372 13.7864 0.739941C13.3126 0.266165 12.67 0 12 0ZM12 12.6316H2.52632V2.52632H12V12.6316ZM30.3158 0H20.8421C20.1721 0 19.5295 0.266165 19.0557 0.739941C18.582 1.21372 18.3158 1.8563 18.3158 2.52632V12.6316C18.3158 13.3016 18.582 13.9442 19.0557 14.418C19.5295 14.8917 20.1721 15.1579 20.8421 15.1579H30.3158V16.4211C30.3158 17.7611 29.7835 19.0462 28.8359 19.9938C27.8884 20.9414 26.6032 21.4737 25.2632 21.4737C24.9281 21.4737 24.6069 21.6068 24.37 21.8437C24.1331 22.0805 24 22.4018 24 22.7368C24 23.0719 24.1331 23.3931 24.37 23.63C24.6069 23.8669 24.9281 24 25.2632 24C27.2726 23.9979 29.1991 23.1987 30.62 21.7779C32.0409 20.357 32.84 18.4305 32.8421 16.4211V2.52632C32.8421 1.8563 32.5759 1.21372 32.1022 0.739941C31.6284 0.266165 30.9858 0 30.3158 0ZM30.3158 12.6316H20.8421V2.52632H30.3158V12.6316Z" fill="#020817"/>
</svg>
