<svg width="117" height="30" viewBox="0 0 117 30" fill="none" xmlns="http://www.w3.org/2000/svg">
<rect width="30" height="30" rx="15" fill="white"/>
<path d="M11.1035 24H7.40436L3.5 18.0628L5.40482 14.9529H13.1031L15.0026 18.0628L11.1035 24Z" fill="#26292E"/>
<path d="M11.2035 6L7.40436 11.9372H15.0026L22.8635 24L26.5 18.0628L18.9017 6H11.2035Z" fill="#26292E"/>
<path d="M35 24.683L41.6324 5H47.0541L53.6864 24.683H49.2385L47.9226 20.6671H40.7375L39.4216 24.683H35ZM41.8692 17.1004H46.7909L43.7905 7.80053H44.8959L41.8692 17.1004Z" fill="white"/>
<path d="M58.4277 24.683L53.4798 10.2576H57.5592L61.0333 20.6671L59.6121 20.6407L63.4809 10.2576H66.9024L70.745 20.6407L69.3237 20.6671L72.7978 10.2576H76.9036L71.9293 24.683H68.5079L64.5074 13.5337H65.876L61.8492 24.683H58.4277Z" fill="white"/>
<path d="M83.802 25C82.644 25 81.6526 24.7534 80.828 24.2602C80.0209 23.7495 79.4068 23.0449 78.9857 22.1466C78.5645 21.2483 78.354 20.2004 78.354 19.0026V10.2576H82.3018V18.6856C82.3018 19.2316 82.4071 19.716 82.6177 20.1387C82.8458 20.5438 83.1616 20.8609 83.5651 21.0898C83.9687 21.3188 84.4249 21.4333 84.9337 21.4333C85.4601 21.4333 85.9163 21.3188 86.3023 21.0898C86.7059 20.8609 87.0129 20.5438 87.2235 20.1387C87.4516 19.716 87.5656 19.2316 87.5656 18.6856V10.2576H91.5134V24.683H87.8288V21.8296L88.0393 22.4637C87.706 23.3267 87.1621 23.9696 86.4076 24.3923C85.6707 24.7974 84.8021 25 83.802 25Z" fill="white"/>
<path d="M94.3989 24.683V10.2576H98.0835V13.7186L97.8203 13.2166C98.1361 12.0013 98.6537 11.1823 99.3731 10.7596C100.11 10.3192 100.979 10.0991 101.979 10.0991H102.821V13.5337H101.584C100.619 13.5337 99.8381 13.8331 99.2415 14.432C98.645 15.0132 98.3467 15.841 98.3467 16.9155V24.683H94.3989Z" fill="white"/>
<path d="M108.999 25C107.964 25 107.069 24.8327 106.315 24.498C105.56 24.1634 104.981 23.6878 104.577 23.0713C104.174 22.4373 103.972 21.6887 103.972 20.8256C103.972 20.0154 104.156 19.3021 104.525 18.6856C104.893 18.0515 105.455 17.5231 106.209 17.1004C106.981 16.6777 107.938 16.3782 109.078 16.2021L113.473 15.4888V18.395L109.789 19.0555C109.227 19.1612 108.797 19.3461 108.499 19.6103C108.201 19.8569 108.052 20.218 108.052 20.6935C108.052 21.1339 108.218 21.4773 108.552 21.7239C108.885 21.9705 109.297 22.0938 109.789 22.0938C110.438 22.0938 111.008 21.9529 111.499 21.6711C111.991 21.3893 112.368 21.0106 112.631 20.535C112.912 20.0418 113.052 19.5046 113.052 18.9234V15.1717C113.052 14.6257 112.833 14.1678 112.394 13.7979C111.973 13.428 111.394 13.2431 110.657 13.2431C109.955 13.2431 109.332 13.4368 108.789 13.8243C108.262 14.2118 107.876 14.7226 107.63 15.3567L104.472 13.8507C104.753 13.0405 105.2 12.3448 105.814 11.7635C106.429 11.1823 107.166 10.7332 108.025 10.4161C108.885 10.0991 109.824 9.94056 110.841 9.94056C112.052 9.94056 113.122 10.1607 114.052 10.6011C114.982 11.0414 115.702 11.6579 116.21 12.4505C116.737 13.2255 117 14.1325 117 15.1717V24.683H113.315V22.358L114.21 22.1995C113.789 22.8336 113.324 23.362 112.815 23.7847C112.306 24.1898 111.736 24.4892 111.105 24.683C110.473 24.8943 109.771 25 108.999 25Z" fill="white"/>
</svg>
