<svg width="22" height="28" viewBox="0 0 22 28" fill="none" xmlns="http://www.w3.org/2000/svg">
<path d="M11 0C8.08363 0.00330845 5.28766 1.16331 3.22548 3.22551C1.1633 5.28772 0.00330842 8.08372 0 11.0001C0 20.4127 10 27.5215 10.4263 27.819C10.5944 27.9368 10.7947 28 11 28C11.2053 28 11.4056 27.9368 11.5737 27.819C12 27.5215 22 20.4127 22 11.0001C21.9967 8.08372 20.8367 5.28772 18.7745 3.22551C16.7123 1.16331 13.9164 0.00330845 11 0ZM11 7.00007C11.7911 7.00007 12.5645 7.23467 13.2223 7.6742C13.8801 8.11373 14.3928 8.73845 14.6955 9.46936C14.9983 10.2003 15.0775 11.0045 14.9231 11.7805C14.7688 12.5564 14.3878 13.2691 13.8284 13.8286C13.269 14.388 12.5563 14.7689 11.7804 14.9233C11.0044 15.0776 10.2002 14.9984 9.46927 14.6957C8.73836 14.3929 8.11365 13.8802 7.67412 13.2224C7.2346 12.5646 7 11.7912 7 11.0001C7 9.93923 7.42143 8.92181 8.17157 8.17165C8.92172 7.4215 9.93913 7.00007 11 7.00007Z" fill="black"/>
</svg>
