<svg width="24" height="24" viewBox="0 0 24 24" fill="none" xmlns="http://www.w3.org/2000/svg">
<path d="M14.4325 1.67137C14.4651 1.54954 14.5214 1.43532 14.5981 1.33524C14.6749 1.23516 14.7706 1.15118 14.8798 1.08811C14.989 1.02503 15.1096 0.984095 15.2346 0.967633C15.3597 0.951171 15.4867 0.959508 15.6085 0.992167C17.3882 1.45651 19.012 2.38687 20.3125 3.68744C21.6131 4.988 22.5434 6.61174 23.0078 8.39144C23.0404 8.51325 23.0488 8.64031 23.0323 8.76535C23.0158 8.89039 22.9749 9.01096 22.9118 9.12017C22.8488 9.22938 22.7648 9.3251 22.6647 9.40184C22.5646 9.47859 22.4504 9.53486 22.3286 9.56745C22.2475 9.58875 22.164 9.59964 22.0802 9.59985C21.8688 9.59991 21.6633 9.5302 21.4955 9.40154C21.3278 9.27287 21.2073 9.09244 21.1526 8.88824C20.774 7.43519 20.0148 6.1094 18.9532 5.04754C17.8915 3.98568 16.5659 3.2262 15.1129 2.84738C14.991 2.81493 14.8766 2.75874 14.7764 2.68205C14.6762 2.60536 14.5921 2.50967 14.5289 2.40044C14.4657 2.29122 14.4247 2.17061 14.4081 2.0455C14.3916 1.9204 14.3999 1.79327 14.4325 1.67137ZM14.1529 6.68742C15.8077 7.12903 16.8709 8.19344 17.3125 9.84825C17.3672 10.0524 17.4878 10.2329 17.6555 10.3615C17.8232 10.4902 18.0287 10.5599 18.2401 10.5599C18.324 10.5596 18.4075 10.5488 18.4885 10.5275C18.6104 10.4949 18.7246 10.4386 18.8247 10.3619C18.9248 10.2851 19.0087 10.1894 19.0718 10.0802C19.1349 9.97097 19.1758 9.8504 19.1923 9.72536C19.2087 9.60032 19.2004 9.47326 19.1677 9.35145C18.5533 7.05223 16.9477 5.44661 14.6485 4.8322C14.4025 4.76648 14.1405 4.80118 13.92 4.92867C13.6996 5.05616 13.5388 5.26599 13.4731 5.51201C13.4074 5.75803 13.4421 6.02008 13.5696 6.24051C13.6971 6.46094 13.9069 6.6217 14.1529 6.68742ZM22.8446 16.1351L17.1913 13.6019L17.1757 13.5947C16.8822 13.4692 16.5621 13.4188 16.2442 13.4481C15.9264 13.4775 15.6209 13.5856 15.3553 13.7627C15.3241 13.7833 15.294 13.8058 15.2653 13.8299L12.3445 16.3199C10.4941 15.4211 8.58367 13.5251 7.68487 11.6987L10.1785 8.73344C10.2025 8.70344 10.2253 8.67344 10.2469 8.64104C10.4202 8.3762 10.5254 8.07262 10.553 7.75732C10.5806 7.44202 10.5299 7.12478 10.4053 6.83382V6.81942L7.86487 1.15657C7.70015 0.776482 7.41693 0.45986 7.05749 0.253966C6.69804 0.0480721 6.28164 -0.0360501 5.87045 0.0141573C4.2444 0.228127 2.75185 1.02669 1.67154 2.26069C0.59124 3.4947 -0.00292914 5.07976 1.08584e-05 6.71982C1.08584e-05 16.2479 7.75207 24 17.2801 24C18.9202 24.0029 20.5052 23.4088 21.7393 22.3285C22.9733 21.2481 23.7718 19.7556 23.9858 18.1295C24.0361 17.7185 23.9521 17.3022 23.7465 16.9428C23.5408 16.5833 23.2244 16.3 22.8446 16.1351Z" fill="black"/>
</svg>
