<svg width="18" height="18" viewBox="0 0 18 18" fill="none" xmlns="http://www.w3.org/2000/svg">
<path d="M17.8004 1.4331L17.7511 13.6005C17.7496 13.9815 17.5967 14.3474 17.3263 14.6179C17.0558 14.8884 16.6898 15.0412 16.3089 15.0428C15.9279 15.0443 15.5631 14.8944 15.2948 14.6261C15.0266 14.3579 14.8767 13.9931 14.8782 13.6121L14.9152 4.90906L2.44398 17.3803C2.17398 17.6503 1.80863 17.8028 1.42833 17.8044C1.04802 17.8059 0.683907 17.6563 0.416081 17.3885C0.148253 17.1207 -0.00134503 16.7565 0.000195602 16.3762C0.00173624 15.9959 0.15429 15.6306 0.424296 15.3606L12.8955 2.88938L4.1916 2.92211C3.81064 2.92365 3.44589 2.77379 3.1776 2.5055C2.90931 2.23721 2.75945 1.87246 2.76099 1.4915C2.76254 1.11053 2.91535 0.744559 3.18583 0.474085C3.4563 0.20361 3.82228 0.0507919 4.20324 0.0492489L16.3706 -4.78409e-05C16.5595 -0.00103104 16.7464 0.0353076 16.9206 0.10688C17.0948 0.178453 17.2529 0.283849 17.3857 0.417017C17.5186 0.550183 17.6236 0.708498 17.6948 0.882869C17.7659 1.05724 17.8018 1.24423 17.8004 1.4331Z" fill="white"/>
</svg>
