<svg width="14" height="14" viewBox="0 0 14 14" fill="none" xmlns="http://www.w3.org/2000/svg">
<path d="M13.3503 1.07501L13.3133 10.2006C13.3122 10.4863 13.1976 10.7608 12.9947 10.9636C12.7918 11.1665 12.5174 11.2811 12.2316 11.2822C11.9459 11.2834 11.6724 11.171 11.4711 10.9698C11.2699 10.7686 11.1575 10.495 11.1587 10.2093L11.1864 3.68198L1.83298 13.0354C1.63048 13.2379 1.35647 13.3523 1.07125 13.3535C0.786017 13.3546 0.51293 13.2424 0.31206 13.0416C0.11119 12.8407 -0.00100938 12.5676 0.00014626 12.2824C0.00130191 11.9971 0.115717 11.7231 0.318222 11.5206L9.67163 2.16722L3.1437 2.19176C2.85798 2.19292 2.58442 2.08053 2.3832 1.87931C2.18198 1.67809 2.06959 1.40453 2.07074 1.11881C2.0719 0.833083 2.18651 0.558603 2.38937 0.355748C2.59223 0.152892 2.86671 0.0382782 3.15243 0.0371203L12.278 0.000147877C12.4196 -0.000589187 12.5598 0.0266653 12.6905 0.0803446C12.8211 0.134024 12.9397 0.213071 13.0393 0.312947C13.1389 0.412822 13.2177 0.531558 13.2711 0.662336C13.3244 0.793114 13.3514 0.933356 13.3503 1.07501Z" fill="white"/>
</svg>
