<svg width="23" height="30" viewBox="0 0 23 30" fill="none" xmlns="http://www.w3.org/2000/svg">
<path d="M22.6627 22.7387L15.763 29.6616C15.6022 29.8231 15.3972 29.9332 15.174 29.9778C14.9508 30.0224 14.7195 29.9995 14.5092 29.9121C14.299 29.8247 14.1193 29.6767 13.993 29.4868C13.8666 29.2969 13.7993 29.0736 13.7995 28.8453V23.0762H1.14995C0.844968 23.0762 0.552473 22.9547 0.336814 22.7383C0.121156 22.5219 0 22.2284 0 21.9224V1.15381C0 0.847801 0.121156 0.554325 0.336814 0.337943C0.552473 0.121562 0.844968 0 1.14995 0C1.45494 0 1.74744 0.121562 1.9631 0.337943C2.17875 0.554325 2.29991 0.847801 2.29991 1.15381V20.7686H13.7995V14.9995C13.7993 14.7712 13.8666 14.548 13.993 14.358C14.1193 14.1681 14.299 14.0201 14.5092 13.9327C14.7195 13.8453 14.9508 13.8225 15.174 13.867C15.3972 13.9116 15.6022 14.0217 15.763 14.1832L22.6627 21.1061C22.7697 21.2132 22.8545 21.3405 22.9123 21.4806C22.9702 21.6206 23 21.7708 23 21.9224C23 22.074 22.9702 22.2242 22.9123 22.3643C22.8545 22.5043 22.7697 22.6316 22.6627 22.7387Z" fill="#1E1E1E"/>
</svg>
