<svg width="136" height="43" viewBox="0 0 136 43" fill="none" xmlns="http://www.w3.org/2000/svg">
<path d="M33.8734 10.3435C33.7649 10.2088 33.6123 10.1183 33.4436 10.0886C33.2748 10.0589 33.1012 10.0919 32.9545 10.1816L23.1644 15.989L25.5378 9.53386C25.5947 9.37981 25.5994 9.21085 25.5512 9.05375C25.503 8.89665 25.4047 8.7604 25.2718 8.6666C25.1389 8.57279 24.979 8.5268 24.8174 8.5359C24.6559 8.545 24.502 8.60868 24.38 8.71685L18.3888 13.9943L16.6377 1.51832C16.6114 1.34685 16.5264 1.19035 16.3977 1.07649C16.2689 0.962625 16.1047 0.898724 15.9342 0.896081C15.7636 0.893439 15.5976 0.952225 15.4655 1.06205C15.3334 1.17187 15.2437 1.32567 15.2123 1.49624L13.0343 14.3108L9.51769 11.0648C9.41005 10.9683 9.27676 10.9063 9.13456 10.8866C8.99237 10.8668 8.84762 10.8903 8.7185 10.954C8.58938 11.0177 8.48166 11.1189 8.40886 11.2447C8.33606 11.3705 8.30145 11.5154 8.30935 11.6611L8.64216 16.7913L1.0518 12.8166C0.904135 12.7399 0.735047 12.7172 0.572868 12.7522C0.410689 12.7873 0.265271 12.8779 0.160978 13.009C0.0566841 13.1401 -0.000148952 13.3037 2.93191e-07 13.4724C0.000149538 13.641 0.057272 13.8045 0.161797 13.9354L6.19646 21.524L2.10823 23.3126C1.98282 23.3704 1.87602 23.4631 1.80015 23.58C1.72428 23.6968 1.68241 23.8331 1.67939 23.9732C1.67636 24.1132 1.7123 24.2512 1.78305 24.3714C1.85381 24.4915 1.9565 24.5889 2.07929 24.6522L6.31223 26.7426L3.35279 30.3198C3.2639 30.4333 3.20953 30.5707 3.19635 30.7152C3.18318 30.8597 3.21178 31.005 3.27864 31.1332C3.34549 31.2614 3.4477 31.367 3.5727 31.4369C3.6977 31.5068 3.84007 31.5381 3.9823 31.5269L8.40338 31.0779L3.28043 40.4772C3.20163 40.6278 3.17649 40.8015 3.20927 40.9688C3.24206 41.1361 3.33074 41.2867 3.46028 41.3951C3.58981 41.5034 3.75222 41.5628 3.91992 41.5632C4.08763 41.5636 4.2503 41.505 4.38032 41.3972L13.1356 33.8454L15.3353 41.5739C15.3796 41.7305 15.474 41.8677 15.6035 41.9637C15.733 42.0596 15.8903 42.109 16.0504 42.1039C16.2106 42.0989 16.3645 42.0397 16.4879 41.9357C16.6113 41.8317 16.6971 41.6889 16.7318 41.5298L18.4612 33.713L27.4263 41.1912C27.5581 41.2975 27.7221 41.3539 27.8903 41.3505C28.0585 41.3472 28.2202 41.2844 28.3478 41.1729C28.4754 41.0614 28.5608 40.9082 28.5894 40.7396C28.618 40.5709 28.5879 40.3975 28.5044 40.249L23.0921 31.0485L27.7519 31.5784C27.8943 31.5922 28.0376 31.5631 28.1639 31.4949C28.2902 31.4266 28.3941 31.3222 28.4627 31.1945C28.5312 31.0667 28.5614 30.9214 28.5495 30.7764C28.5377 30.6314 28.4842 30.4931 28.3958 30.3787L25.053 26.2568L28.9892 24.2768C29.1109 24.2147 29.2127 24.1189 29.2832 24.0005C29.3537 23.8821 29.3899 23.7459 29.3876 23.6075C29.3853 23.4691 29.3447 23.3341 29.2704 23.2182C29.1961 23.1022 29.0911 23.0099 28.9675 22.952L25.4582 21.3327L33.8734 11.293C33.9821 11.1595 34.0416 10.9916 34.0416 10.8183C34.0416 10.6449 33.9821 10.477 33.8734 10.3435Z" fill="#1E1E1E"/>
<path d="M48.7938 33.1424C46.23 33.1424 43.6662 33.0475 41.1024 32.8576L40.9244 29.368L43.5238 28.6558V15.0891C43.5238 14.4719 43.4763 14.0683 43.3814 13.8784C43.2864 13.6648 43.0372 13.4749 42.6336 13.3087L40.782 12.2761L40.9956 9.32059C44.8413 8.82208 48.141 8.57282 50.8947 8.57282C54.2656 8.57282 56.7344 9.07134 58.3012 10.0684C59.8679 11.0654 60.6513 12.644 60.6513 14.8042C60.6513 15.8725 60.4851 16.822 60.1528 17.6529C59.8205 18.46 59.3101 19.1959 58.6216 19.8606C60.9955 20.9288 62.1825 22.6618 62.1825 25.0594C62.1825 27.1959 61.589 28.9169 60.4021 30.2226C59.2151 31.5282 57.4703 32.3828 55.1677 32.7864C54.3131 33.0237 52.1884 33.1424 48.7938 33.1424ZM54.0282 18.7211C54.2656 18.1039 54.3843 17.0713 54.3843 15.6232C54.3843 14.6262 54.1469 13.8903 53.6721 13.4155C53.2211 12.9408 52.5208 12.6796 51.5712 12.6322C50.954 12.6322 50.3368 12.6559 49.7196 12.7034V18.6499C50.1232 18.6262 50.6454 18.6143 51.2864 18.6143C52.2597 18.6143 53.1736 18.6499 54.0282 18.7211ZM52.5327 28.727C53.8858 28.727 54.8472 28.6083 55.4169 28.3709C55.6543 27.4214 55.773 26.5787 55.773 25.8428C55.773 24.6558 55.4644 23.8131 54.8472 23.3146C54.23 22.8161 53.1855 22.5668 51.7137 22.5668C51.4051 22.5668 51.0134 22.5906 50.5386 22.638L49.7196 22.6736V28.4778C50.5505 28.6439 51.4881 28.727 52.5327 28.727ZM64.1992 6.64999L70.2526 5.04762L71.7125 10.4601L65.6947 12.098L64.1992 6.64999ZM62.7036 29.7241L65.1962 28.9763V20.3235C65.1962 19.8013 65.1487 19.4689 65.0538 19.3265C64.9825 19.1603 64.7808 18.9823 64.4484 18.7924L62.8817 17.9378L63.0597 15.2672C65.03 14.8873 66.5493 14.6143 67.6175 14.4482C68.7095 14.2583 69.7066 14.1514 70.6086 14.1277C70.9172 15.1485 71.1071 15.9081 71.1784 16.4066V27.8012C71.1784 28.2997 71.214 28.6321 71.2852 28.7982C71.3564 28.9644 71.5582 29.1425 71.8905 29.3324L73.6353 30.3294L73.4929 33H62.8105L62.7036 29.7241ZM74.2007 29.5816L76.4084 28.9407V20.3235C76.4084 19.8013 76.3728 19.4689 76.3016 19.3265C76.2304 19.1603 76.0405 18.9823 75.7319 18.7924L74.1651 17.9378L74.2719 15.2672L75.0553 15.1247C78.1651 14.5075 80.4084 14.1752 81.7853 14.1277C81.9752 14.6262 82.1295 15.1722 82.2482 15.7657C83.6962 15.101 84.8713 14.6499 85.7734 14.4126C86.6992 14.1514 87.5656 14.0209 88.3728 14.0209C92.1472 14.0209 94.0345 16.276 94.0345 20.7864V27.7656C94.0345 28.2641 94.0701 28.5965 94.1413 28.7626C94.2125 28.9288 94.4143 29.1068 94.7466 29.2968L96.4558 30.2938L96.3134 32.9644H86.4855L86.3075 29.5816L88.0523 29.0831V22.3532C88.0523 21.2849 88.0167 20.5372 87.9455 20.1099C87.8742 19.6826 87.6725 19.3502 87.3401 19.1128C87.0315 18.8754 86.4737 18.7567 85.6665 18.7567C84.8119 18.7567 83.7318 18.8873 82.4262 19.1484V27.7656C82.4262 28.2641 82.4618 28.5965 82.533 28.7626C82.6042 28.9288 82.7942 29.1068 83.1028 29.2968L84.8476 30.2938L84.7051 32.9644H74.3788L74.2007 29.5816ZM104.16 41.1187C101.43 41.1187 99.3646 40.6914 97.964 39.8368C96.5871 38.9822 95.8987 37.724 95.8987 36.0623C95.8987 34.3056 96.7058 32.7626 98.3201 31.4332C97.8216 30.9347 97.5723 30.3887 97.5723 29.7953C97.5723 28.9407 98.1302 27.73 99.2459 26.1632C97.2993 25.1425 96.326 23.3858 96.326 20.8932C96.326 18.7093 97.0619 17.0238 98.5337 15.8369C100.029 14.6262 102.178 14.0209 104.979 14.0209C106.949 14.0209 108.563 14.3176 109.821 14.9111L114.094 13.5936H115.768V18.7567H112.991C113.109 19.3502 113.169 19.9318 113.169 20.5015C113.169 22.6855 112.433 24.3472 110.961 25.4867C109.489 26.6261 107.329 27.1959 104.48 27.1959C103.507 27.1959 102.629 27.1247 101.845 26.9822V27.4807C101.845 27.8606 102 28.1336 102.308 28.2997C102.641 28.4422 103.341 28.5846 104.409 28.727L107.614 29.1899C110.13 29.546 111.863 30.1632 112.813 31.0416C113.786 31.9199 114.273 33.0475 114.273 34.4243C114.273 36.5608 113.394 38.2107 111.638 39.3739C109.881 40.5371 107.388 41.1187 104.16 41.1187ZM105.014 23.7063C105.513 23.7063 106.083 23.6351 106.724 23.4926C106.819 23.2078 106.902 22.7805 106.973 22.2107C107.068 21.641 107.115 21.1188 107.115 20.644C107.115 19.5757 106.878 18.7805 106.403 18.2582C105.952 17.736 105.24 17.4749 104.267 17.4749C103.792 17.4749 103.27 17.5461 102.7 17.6885C102.581 17.9734 102.474 18.3888 102.379 18.9348C102.308 19.4808 102.273 20.003 102.273 20.5015C102.273 21.5935 102.498 22.4006 102.949 22.9229C103.4 23.4452 104.089 23.7063 105.014 23.7063ZM105.798 37.0949C106.89 37.0949 107.721 37 108.29 36.8101C108.433 36.5252 108.504 36.1454 108.504 35.6706C108.504 35.1009 108.302 34.6617 107.899 34.3531C107.495 34.0682 106.771 33.8546 105.727 33.7122L104.587 33.5341C103.543 33.4154 102.486 33.2493 101.418 33.0356C101.276 33.6766 101.204 34.1869 101.204 34.5668C101.204 35.4214 101.584 36.0504 102.344 36.454C103.103 36.8813 104.255 37.0949 105.798 37.0949ZM124.9 33.4629C121.885 33.4629 119.63 32.6914 118.135 31.1484C116.663 29.6054 115.927 27.2434 115.927 24.0624C115.927 22.0208 116.295 20.2404 117.031 18.7211C117.791 17.2019 118.871 16.0387 120.271 15.2315C121.672 14.4244 123.322 14.0209 125.221 14.0209C131.369 14.0209 134.443 17.2019 134.443 23.5638C134.443 26.6736 133.601 29.1068 131.915 30.8635C130.253 32.5964 127.915 33.4629 124.9 33.4629ZM125.47 29.2968C125.945 29.2968 126.36 29.2611 126.716 29.1899C127.072 29.095 127.452 28.9525 127.856 28.7626C127.998 28.2166 128.117 27.5163 128.212 26.6618C128.307 25.8072 128.354 24.9882 128.354 24.2048C128.354 22.282 128.046 20.822 127.428 19.825C126.835 18.828 125.945 18.3295 124.758 18.3295C123.974 18.3295 123.179 18.4363 122.372 18.6499C122.206 19.006 122.075 19.5876 121.98 20.3947C121.885 21.1781 121.838 22.0802 121.838 23.1009C121.838 25.095 122.147 26.6261 122.764 27.6944C123.405 28.7626 124.307 29.2968 125.47 29.2968Z" fill="#1E1E1E"/>
</svg>
