<svg width="147" height="43" viewBox="0 0 147 43" fill="none" xmlns="http://www.w3.org/2000/svg">
<path d="M21.9984 9.22256C20.3231 9.22256 18.8306 10.9677 17.8434 13.7067C15.7326 7.75002 11.6441 7.75334 9.53332 13.7067C8.54609 10.9677 7.0536 9.22256 5.37828 9.22256C2.4066 9.22256 0 14.7205 0 21.5015C0 28.2826 2.4066 33.7805 5.37828 33.7805C7.0536 33.7805 8.54609 32.0354 9.53332 29.2964C11.6441 35.2531 15.7326 35.2497 17.8434 29.2964C18.8306 32.0354 20.3231 33.7805 21.9984 33.7805C29.1085 33.2886 29.1019 9.70787 21.9984 9.21924V9.22256Z" fill="#1E1E1E"/>
<path d="M33.875 34V32.5463L37.4561 32.0853H38.378L41.6045 32.5463V34H33.875ZM34.3004 12.1586V10.7049H38.768L38.8034 12.6905H38.4134L34.3004 12.1586ZM36.9597 34V10.9531H38.5907L38.768 22.512V34H36.9597ZM45.4339 34L37.8107 12.8677H37.4561V10.7049H42.7746L48.9441 28.0078H48.0577L48.235 27.4405L54.0499 10.7049H55.6809V12.4777H55.2909L54.9363 13.4705L47.8449 34H45.4339ZM51.7806 34V32.5463L55.9645 32.0144H57.9501L62.524 32.5463V34H51.7806ZM54.1917 34C54.239 32.889 54.2626 31.7308 54.2626 30.5252C54.2863 29.2961 54.2981 28.0787 54.2981 26.8732C54.3217 25.6677 54.3335 24.533 54.3335 23.4693L54.4044 10.7049H60.0066C59.983 11.7922 59.9593 12.9505 59.9357 14.1796C59.9121 15.4088 59.9002 16.6498 59.9002 17.9026C59.9002 19.1554 59.9002 20.3846 59.9002 21.5901V23.0084C59.9002 24.2376 59.9002 25.4904 59.9002 26.7668C59.9002 28.0433 59.9121 29.2961 59.9357 30.5252C59.9593 31.7308 59.983 32.889 60.0066 34H54.1917ZM56.6028 12.6905V10.7049H62.4531V12.1586L57.9501 12.6905H56.6028ZM67.7327 34.5319C66.4326 34.5319 65.3571 34.1536 64.5062 33.3972C63.6788 32.6408 63.2652 31.5653 63.2652 30.1707C63.2652 29.3433 63.4543 28.5869 63.8325 27.9014C64.2107 27.2159 64.8844 26.5777 65.8535 25.9868C66.8227 25.3958 68.1582 24.864 69.8601 24.3912C70.4274 24.2257 71.0184 24.0603 71.633 23.8948C72.2476 23.7293 72.8621 23.5639 73.4767 23.3984C74.1149 23.233 74.7413 23.0675 75.3559 22.902V24.0721C74.5286 24.3321 73.7486 24.5803 73.0158 24.8167C72.283 25.0294 71.6566 25.2304 71.1366 25.4195C70.4747 25.6558 69.9192 25.9631 69.4701 26.3413C69.0446 26.6959 68.7255 27.1214 68.5128 27.6178C68.3 28.1142 68.1937 28.6815 68.1937 29.3197C68.1937 30.1707 68.4064 30.8089 68.8319 31.2344C69.2574 31.6362 69.7774 31.8371 70.392 31.8371C70.7465 31.8371 71.0775 31.7899 71.3848 31.6953C71.7157 31.5771 72.0821 31.388 72.4839 31.128C72.8858 30.8443 73.3704 30.478 73.9377 30.0288L74.2922 31.6953H72.9449C72.4248 32.3335 71.9048 32.8654 71.3848 33.2909C70.8884 33.6927 70.3565 34 69.7892 34.2127C69.2219 34.4255 68.5364 34.5319 67.7327 34.5319ZM76.4196 34.4964C75.2377 34.4964 74.3277 34.2127 73.6895 33.6454C73.0512 33.0781 72.673 32.3217 72.5548 31.3762V31.2344V22.4411C72.5548 21.3301 72.4721 20.4791 72.3066 19.8882C72.1412 19.2736 71.8575 18.8363 71.4557 18.5763C71.0538 18.3163 70.4865 18.1863 69.7538 18.1863C69.3519 18.1863 68.9264 18.2335 68.4773 18.3281C68.0518 18.399 67.5436 18.5172 66.9527 18.6827L68.8673 17.4771L68.5837 19.9591C68.5364 21.1174 68.2646 21.9447 67.7682 22.4411C67.2718 22.9138 66.7045 23.1502 66.0663 23.1502C65.4753 23.1502 64.9907 23.0084 64.6125 22.7247C64.2343 22.4174 63.9743 21.9801 63.8325 21.4128C63.9507 19.9946 64.6834 18.8481 66.0308 17.9735C67.3782 17.0989 69.2219 16.6616 71.5621 16.6616C73.0276 16.6616 74.2095 16.898 75.1077 17.3708C76.0296 17.8199 76.6915 18.5172 77.0933 19.4627C77.5188 20.4082 77.7315 21.6492 77.7315 23.1857V31.128C77.7315 31.4826 77.8025 31.7544 77.9443 31.9435C78.0861 32.109 78.2752 32.1917 78.5116 32.1917C78.7243 32.1917 78.9134 32.1326 79.0789 32.0144C79.268 31.8962 79.4689 31.6953 79.6817 31.4117L80.4617 31.9435C80.0835 32.8181 79.5635 33.4681 78.9016 33.8936C78.2634 34.2955 77.4361 34.4964 76.4196 34.4964ZM84.82 19.1081V17.1935H91.0958V19.1081H84.82ZM86.9828 34.5319C85.4464 34.5319 84.2408 34.1536 83.3662 33.3972C82.4916 32.6408 82.0543 31.4353 82.0543 29.7806C82.0543 29.1188 82.0543 28.516 82.0543 27.9723C82.078 27.405 82.0898 26.7314 82.0898 25.9513L82.1253 19.1081H79.8915V17.5126L83.6854 16.9453L81.9834 18.1154L84.6427 12.0877H87.4792L87.4083 17.7962V18.3635V29.5679C87.4083 30.3952 87.5738 30.998 87.9047 31.3762C88.2593 31.7308 88.6966 31.908 89.2166 31.908C89.6185 31.908 89.973 31.8371 90.2803 31.6953C90.5876 31.5535 90.9067 31.3289 91.2377 31.0216L91.9468 31.6953C91.6631 32.3099 91.2849 32.8299 90.8122 33.2554C90.3631 33.6809 89.8194 34 89.1812 34.2127C88.5666 34.4255 87.8338 34.5319 86.9828 34.5319ZM96.1289 19.1081V17.1935H102.405V19.1081H96.1289ZM98.2917 34.5319C96.7553 34.5319 95.5498 34.1536 94.6752 33.3972C93.8006 32.6408 93.3633 31.4353 93.3633 29.7806C93.3633 29.1188 93.3633 28.516 93.3633 27.9723C93.3869 27.405 93.3987 26.7314 93.3987 25.9513L93.4342 19.1081H91.2004V17.5126L94.9943 16.9453L93.2923 18.1154L95.9516 12.0877H98.7881L98.7172 17.7962V18.3635V29.5679C98.7172 30.3952 98.8827 30.998 99.2136 31.3762C99.5682 31.7308 100.005 31.908 100.526 31.908C100.927 31.908 101.282 31.8371 101.589 31.6953C101.897 31.5535 102.216 31.3289 102.547 31.0216L103.256 31.6953C102.972 32.3099 102.594 32.8299 102.121 33.2554C101.672 33.6809 101.128 34 100.49 34.2127C99.8755 34.4255 99.1427 34.5319 98.2917 34.5319ZM111.797 34.5319C110.143 34.5319 108.665 34.2009 107.365 33.5391C106.089 32.8536 105.072 31.8726 104.316 30.5961C103.583 29.2961 103.217 27.7005 103.217 25.8095C103.217 23.8712 103.595 22.2283 104.351 20.881C105.108 19.51 106.124 18.4699 107.401 17.7608C108.677 17.028 110.084 16.6616 111.62 16.6616C113.133 16.6616 114.421 16.9689 115.485 17.5835C116.549 18.1981 117.364 19.0372 117.931 20.1009C118.522 21.1646 118.818 22.3702 118.818 23.7175C118.818 24.0957 118.806 24.4148 118.782 24.6749C118.759 24.9349 118.711 25.2185 118.64 25.5258H105.415V24.0366H111.62C112.542 24.0366 113.156 23.8712 113.464 23.5402C113.795 23.1857 113.96 22.5829 113.96 21.7319C113.96 20.881 113.854 20.1955 113.641 19.6755C113.452 19.1554 113.18 18.7772 112.826 18.5408C112.495 18.2808 112.105 18.1508 111.655 18.1508C111.135 18.1508 110.651 18.3635 110.202 18.789C109.776 19.2145 109.434 19.9236 109.174 20.9164C108.913 21.9092 108.783 23.2802 108.783 25.0294C108.783 26.4713 109.008 27.6651 109.457 28.6106C109.906 29.5561 110.509 30.2652 111.265 30.738C112.046 31.2107 112.896 31.4471 113.818 31.4471C114.693 31.4471 115.461 31.2935 116.123 30.9862C116.785 30.6789 117.376 30.2298 117.896 29.6388L118.818 30.4189C118.345 31.3407 117.766 32.109 117.08 32.7236C116.419 33.3145 115.65 33.7636 114.776 34.0709C113.901 34.3782 112.908 34.5319 111.797 34.5319ZM125.812 34.0709L119.82 17.1935H125.387L129.039 29.2488H128.401L128.578 28.7879L132.407 17.1935H135.492L139.392 29.1424H138.754L138.896 28.646L142.548 17.1935H144.498L138.683 34.0709H136.201L131.911 21.6965H132.62L132.443 22.122L128.33 34.0709H125.812ZM118.827 18.4699V17.1935H127.94V18.4699L124.323 19.0372H121.948L118.827 18.4699ZM129.783 18.4699V17.1935H138.009V18.4699L134.854 19.0018L133.187 18.9663L129.783 18.4699ZM139.924 18.4699V17.1935H145.881V18.4699L143.292 18.8954H142.761L139.924 18.4699Z" fill="#1E1E1E"/>
</svg>
