<svg width="114" height="37" viewBox="0 0 114 37" fill="none" xmlns="http://www.w3.org/2000/svg">
<path d="M-0.000254885 0.0001525H8.06386V27.7407H-0.000254885V0.0001525ZM15.5635 17.0558H9.75733V10.6045H15.5635V0.0001525H23.6276V27.7407H15.5635V17.0558ZM39.0632 14.9994C39.0632 14.3005 39.0363 13.8032 38.9825 13.5076C38.9288 13.2119 38.7675 12.9968 38.4987 12.8624C38.2567 12.728 37.7998 12.6339 37.1278 12.5802C36.7246 12.5533 35.8509 12.5399 34.5069 12.5399C33.2167 12.5399 32.0205 12.5936 30.9184 12.7011L28.7814 12.8221V7.58043C31.3082 7.09658 34.0365 6.85465 36.9665 6.85465C39.2244 6.85465 40.9851 7.01594 42.2485 7.3385C43.5387 7.66107 44.5064 8.17179 45.1516 8.87068C45.7161 9.51581 46.0789 10.3357 46.2402 11.3302C46.4284 12.3248 46.5225 13.7092 46.5225 15.4833V27.7407H39.0632V14.9994ZM33.0957 28.023C31.241 28.023 29.8701 27.5122 28.983 26.4908C28.096 25.4424 27.6524 23.8699 27.6524 21.7733C27.6524 20.483 27.7465 19.4481 27.9347 18.6686C28.1228 17.8622 28.4454 17.2305 28.9024 16.7735C29.3593 16.2897 29.991 15.9537 30.7974 15.7655C31.6038 15.5505 32.6656 15.4429 33.9828 15.4429L37.3697 15.5236V19.1121H36.9665C36.3482 19.1121 35.945 19.1256 35.7569 19.1524C35.2193 19.1793 34.937 19.4347 34.9101 19.9185C34.8833 20.0798 34.8698 20.4158 34.8698 20.9265C34.8698 21.3297 34.8833 21.6389 34.9101 21.8539C34.9639 22.069 35.0445 22.2437 35.1521 22.3781C35.2865 22.5662 35.4881 22.6738 35.7569 22.7006C36.1332 22.7544 36.5364 22.7813 36.9665 22.7813H37.3697V26.894C36.7783 27.351 36.1466 27.6466 35.4746 27.781C34.8295 27.9423 34.0365 28.023 33.0957 28.023ZM56.7888 28.023C54.3695 28.023 52.7433 27.2838 51.91 25.8053C51.5337 25.1602 51.2783 24.3807 51.1439 23.4667C51.0095 22.5259 50.9423 21.3835 50.9423 20.0395V7.17722H58.4016V16.8945C58.4016 18.3191 58.415 19.26 58.4419 19.7169C58.4957 20.3889 58.5763 20.8728 58.6839 21.1685C58.7914 21.4641 58.9661 21.6523 59.208 21.733C59.4499 21.7867 59.88 21.8136 60.4983 21.8136H60.9015V26.8537C59.8531 27.6332 58.4822 28.023 56.7888 28.023ZM62.5949 7.17722H70.0543V27.7407H62.5949V7.17722ZM89.8895 12.7818C89.3787 12.7549 88.6799 12.6877 87.7928 12.5802C86.1262 12.4189 84.7822 12.3383 83.7607 12.3383H82.4302V6.85465C84.3387 6.85465 86.1531 6.98906 87.8734 7.25786L89.8895 7.62075V12.7818ZM84.043 21.491C84.043 21.0878 83.9758 20.8325 83.8414 20.7249C83.707 20.6174 83.4247 20.5368 82.9947 20.483L78.64 19.8782C77.5648 19.7169 76.6912 19.4616 76.0192 19.1121C75.3741 18.7627 74.8902 18.2923 74.5676 17.7009C74.2451 17.1902 74.03 16.5719 73.9225 15.8461C73.815 15.1204 73.7612 14.2199 73.7612 13.1447C73.7612 10.9405 74.4198 9.32765 75.7369 8.3062C76.839 7.49978 78.5056 7.02938 80.7367 6.89497V13.2253C80.7367 13.6285 80.7905 13.8973 80.898 14.0317C81.0055 14.1392 81.3415 14.2333 81.906 14.314L86.7445 14.9591C87.4434 15.0397 88.0482 15.1876 88.5589 15.4026C89.0696 15.5908 89.4997 15.8865 89.8492 16.2897C90.6287 17.1498 91.0185 18.803 91.0185 21.2491C91.0185 23.8296 90.3599 25.6306 89.0427 26.6521C87.8869 27.5122 86.2203 27.9692 84.043 28.023V21.491ZM82.3495 28.0633C80.1991 28.0364 78.3175 27.902 76.7046 27.6601L74.4064 27.2972V22.1362C75.4816 22.2437 76.9331 22.3512 78.761 22.4587C79.7824 22.5125 80.5082 22.5394 80.9383 22.5394H82.3495V28.0633ZM100.576 27.6198C98.1571 27.6198 96.5308 26.8805 95.6975 25.4021C95.3212 24.757 95.0658 23.9775 94.9314 23.0635C94.797 22.1227 94.7298 20.9803 94.7298 19.6363V7.17722H102.189V16.4913C102.189 17.9159 102.203 18.8568 102.229 19.3137C102.283 20.0126 102.364 20.4965 102.471 20.7653C102.579 21.0609 102.754 21.2491 102.996 21.3297C103.237 21.3835 103.668 21.4104 104.286 21.4104H104.689V26.4101C103.614 27.2166 102.243 27.6198 100.576 27.6198ZM103.358 36.0468C101.961 36.0468 100.321 35.9661 98.4393 35.8048L96.1007 35.5629V30.3616H101.504C102.471 30.3616 103.412 30.3347 104.326 30.2809C104.971 30.2272 105.442 30.0928 105.737 29.8777C106.06 29.6896 106.248 29.3535 106.302 28.8697C106.356 28.2246 106.382 27.5391 106.382 26.8133V7.17722H113.842V25.4828C113.842 27.6332 113.748 29.2998 113.56 30.4825C113.398 31.6653 113.009 32.6464 112.39 33.4259C111.691 34.313 110.63 34.9715 109.205 35.4016C107.78 35.8317 105.831 36.0468 103.358 36.0468Z" fill="#1E1E1E"/>
</svg>
