<svg width="157" height="33" viewBox="0 0 157 33" fill="none" xmlns="http://www.w3.org/2000/svg">
<g clip-path="url(#clip0_1_6331)">
<path d="M0 21.6007L11.0763 16.7295L17.4517 20.3829L18.7397 32.3689L10.8832 32.3046L12.0422 23.9721L10.69 23.2031L4.05701 28.3309L0 21.6007Z" fill="#1E1E1E"/>
<path d="M18.1602 19.8694L27.9487 26.9839L31.8125 20.1257L23.9558 16.985V15.4467L31.8125 12.2419L27.9487 5.44775L18.1602 12.5624V19.8694Z" fill="#1E1E1E"/>
<path d="M17.4517 11.986L18.7397 0L10.8832 0.128155L12.0422 8.46067L10.69 9.22981L3.99262 4.10211L0 10.7681L11.0763 15.6394L17.4517 11.986Z" fill="#1E1E1E"/>
<path d="M58.0243 14.7474V25.9764H62.2525V11.666H56.0947V14.7474H58.0243Z" fill="#1E1E1E"/>
<path d="M57.8937 9.65598C58.2814 10.0563 58.8715 10.2565 59.6642 10.2565C60.4574 10.2565 61.0384 10.0563 61.4082 9.65598C61.7963 9.23801 61.9896 8.71568 61.9896 8.08915C61.9896 7.44488 61.7963 6.9226 61.4082 6.52226C61.0384 6.1045 60.4574 5.89551 59.6642 5.89551C58.8715 5.89551 58.2814 6.1045 57.8937 6.52226C57.5239 6.9226 57.3389 7.44488 57.3389 8.08915C57.3389 8.71568 57.5239 9.23801 57.8937 9.65598Z" fill="#1E1E1E"/>
<path d="M43.3074 25.6634C44.5052 26.2031 45.9764 26.4731 47.7204 26.4731C49.359 26.4731 50.7682 26.2203 51.949 25.7157C53.1294 25.2109 54.0365 24.5056 54.6708 23.6003C55.3229 22.6776 55.6486 21.607 55.6486 20.3883C55.6486 19.2045 55.3408 18.2034 54.7241 17.3851C54.1247 16.5496 53.2883 15.8967 52.2131 15.4267C51.1384 14.9392 49.8964 14.6345 48.4868 14.5127L47.0071 14.3821C46.126 14.3123 45.4918 14.0775 45.1042 13.677C44.7166 13.2767 44.5227 12.8064 44.5227 12.267C44.5227 11.849 44.6288 11.466 44.8396 11.1179C45.0514 10.7522 45.3683 10.4651 45.7912 10.256C46.2318 10.0472 46.7692 9.94272 47.4034 9.94272C48.0726 9.94272 48.6279 10.0645 49.0683 10.3084C49.1653 10.3599 49.2573 10.415 49.3437 10.4735L49.3647 10.488C49.397 10.51 49.4289 10.5329 49.4599 10.5561C49.7275 10.7582 49.9405 10.9976 50.0989 11.2745C50.3277 11.6576 50.443 12.084 50.443 12.5542H54.6708C54.6708 11.3006 54.38 10.2125 53.799 9.28987C53.2176 8.34982 52.3807 7.62736 51.2885 7.12233C50.2134 6.60005 48.9186 6.33887 47.4034 6.33887C45.9584 6.33887 44.7078 6.58279 43.6505 7.07017C42.5937 7.54031 41.7656 8.21926 41.1666 9.10698C40.5848 9.99487 40.294 11.0483 40.294 12.267C40.294 13.9555 40.8671 15.3134 42.0122 16.3407C43.1572 17.3678 44.6903 17.9597 46.6107 18.1163L48.0643 18.2469C49.2443 18.3515 50.0989 18.5866 50.6276 18.952C51.1558 19.3002 51.4204 19.7789 51.4204 20.3883C51.4204 20.6683 51.3741 20.9309 51.2811 21.1763C51.2122 21.3584 51.1178 21.531 50.9978 21.6942C50.7153 22.0595 50.3015 22.3468 49.7554 22.5559C49.2093 22.7648 48.531 22.8691 47.7204 22.8691C46.8219 22.8691 46.0907 22.7475 45.5272 22.5034C44.9632 22.2424 44.5405 21.9029 44.2582 21.4852C43.9941 21.0672 43.8622 20.6147 43.8622 20.1271H39.6602C39.6602 21.3632 39.9684 22.4597 40.5848 23.4174C41.2016 24.3578 42.1091 25.1061 43.3074 25.6634Z" fill="#1E1E1E"/>
<path d="M71.6898 26.1598C70.2275 26.1598 69.0471 25.9856 68.1487 25.6374C67.2499 25.2717 66.5894 24.6712 66.1664 23.8356C65.7613 22.9824 65.5587 21.8338 65.5587 20.3886V14.7219H63.3652V11.6665H65.5587V7.80176H69.4963V11.6665H73.725V14.7219H69.4963V20.5454C69.4963 21.2244 69.6727 21.7466 70.0249 22.1119C70.3947 22.4601 70.9146 22.6344 71.5842 22.6344H73.725V26.1598H71.6898Z" fill="#1E1E1E"/>
<path fill-rule="evenodd" clip-rule="evenodd" d="M78.8124 25.8457C79.7637 26.2632 80.8563 26.4725 82.0896 26.4725C83.3049 26.4725 84.38 26.2632 85.3138 25.8457C86.2475 25.4277 87.0228 24.8445 87.6391 24.0961C88.256 23.3473 88.6702 22.4941 88.8811 21.5367H84.9964C84.8205 21.9717 84.4857 22.3375 83.9923 22.6334C83.4991 22.9294 82.8643 23.0773 82.0896 23.0773C81.6094 23.0773 81.1803 23.0212 80.8022 22.9091C80.5145 22.8237 80.2566 22.7059 80.0283 22.5553C79.4996 22.2068 79.1119 21.7193 78.8653 21.0928C78.7968 20.9143 78.7382 20.7276 78.689 20.5331C78.6388 20.3361 78.5981 20.1311 78.5676 19.9176H89.1456V18.5075C89.1456 17.2017 88.8637 16.0006 88.3001 14.9039C87.7361 13.7894 86.9167 12.8929 85.8424 12.2139C84.7852 11.5176 83.4812 11.1694 81.9307 11.1694C80.7503 11.1694 79.6929 11.3784 78.7593 11.7962C77.8438 12.1965 77.0772 12.7449 76.4605 13.4413C75.8441 14.1376 75.3682 14.9299 75.033 15.8179C74.7161 16.688 74.5576 17.6021 74.5576 18.5596V19.0819C74.5576 20.0047 74.7161 20.9099 75.033 21.7979C75.3682 22.6683 75.8441 23.4603 76.4605 24.1742C77.0948 24.8704 77.8783 25.4277 78.8124 25.8457ZM78.6405 17.3354C78.6523 17.2802 78.6645 17.2257 78.678 17.1721C78.7147 17.0245 78.757 16.883 78.8051 16.7478C78.8321 16.6709 78.8609 16.5957 78.8919 16.5229C79.1561 15.8786 79.5437 15.3912 80.0544 15.0605C80.2456 14.9368 80.4526 14.8363 80.6747 14.759C81.0484 14.6292 81.4675 14.5642 81.9307 14.5642C82.6536 14.5642 83.252 14.7298 83.7278 15.0605C84.2211 15.3738 84.5913 15.8351 84.8379 16.4444C84.858 16.4936 84.8768 16.5436 84.8951 16.5943C84.9244 16.6751 84.9515 16.7579 84.9767 16.8429C85.0138 16.9692 85.0466 17.1 85.0754 17.2352C85.0964 17.3349 85.1143 17.4369 85.1304 17.5413H78.5999C78.6121 17.4715 78.6256 17.4029 78.6405 17.3354Z" fill="#1E1E1E"/>
<path d="M90.8936 25.9764V11.6661H94.25V15.2704C94.2954 15.0561 94.3474 14.8505 94.4055 14.6532C94.4552 14.4871 94.5084 14.3269 94.567 14.173C94.9372 13.198 95.492 12.4669 96.2319 11.9794C96.9718 11.4745 97.879 11.2222 98.9541 11.2222H99.1387C100.231 11.2222 101.139 11.4745 101.861 11.9794C102.601 12.4669 103.156 13.198 103.526 14.173L103.555 14.2466L103.58 14.3138C103.597 14.2664 103.614 14.2194 103.632 14.173C104.019 13.198 104.583 12.4669 105.323 11.9794C106.063 11.4745 106.971 11.2222 108.045 11.2222H108.23C109.322 11.2222 110.238 11.4745 110.978 11.9794C111.736 12.4669 112.309 13.198 112.696 14.173C113.083 15.1479 113.278 16.3666 113.278 17.829V25.9764H109.049V17.5939C109.049 16.8104 108.838 16.1751 108.415 15.6877C108.01 15.2001 107.429 14.9564 106.671 14.9564C105.913 14.9564 105.314 15.209 104.874 15.7138C104.433 16.2011 104.213 16.854 104.213 17.6723V25.9764H99.9582V17.5939C99.9582 16.8104 99.7468 16.1751 99.3239 15.6877C98.9188 15.2001 98.3461 14.9564 97.6065 14.9564C96.8308 14.9564 96.2232 15.209 95.7827 15.7138C95.3423 16.2011 95.1218 16.854 95.1218 17.6723V25.9764H90.8936Z" fill="#1E1E1E"/>
<path fill-rule="evenodd" clip-rule="evenodd" d="M124.571 23.2203V25.9775H127.928V17.2033C127.928 15.8801 127.663 14.8009 127.135 13.9651C126.606 13.1121 125.832 12.4767 124.809 12.0589C123.806 11.6411 122.563 11.4321 121.084 11.4321C120.763 11.4321 120.428 11.4355 120.079 11.4424C119.872 11.4466 119.661 11.4519 119.444 11.4581C118.863 11.4757 118.299 11.5017 117.753 11.5366L117.337 11.5644C117.122 11.5791 116.921 11.5935 116.731 11.6083C116.589 11.6192 116.454 11.6301 116.326 11.6411V15.1666C116.873 15.1316 117.48 15.0967 118.15 15.0621C118.337 15.0524 118.522 15.0433 118.707 15.0349C118.973 15.0227 119.235 15.0122 119.496 15.0029C119.7 14.9956 119.903 14.9891 120.106 14.9836C120.739 14.9661 121.25 14.9575 121.638 14.9575C122.413 14.9575 122.977 15.1402 123.33 15.5059C123.682 15.8715 123.858 16.4199 123.858 17.1512V17.2033H121.242C119.956 17.2033 118.82 17.3687 117.833 17.6996C116.846 18.0129 116.079 18.509 115.534 19.188C114.988 19.8496 114.714 20.7027 114.714 21.7473C114.714 22.7049 114.934 23.5317 115.374 24.228C115.816 24.9069 116.423 25.4293 117.198 25.7946C117.991 26.1604 118.908 26.3433 119.947 26.3433C120.951 26.3433 121.796 26.1604 122.484 25.7946C123.189 25.4293 123.735 24.9069 124.122 24.228C124.19 24.1137 124.254 23.995 124.314 23.8717C124.398 23.6974 124.472 23.5136 124.538 23.3217L124.571 23.2203ZM123.858 20.6766V19.5275H121.215C120.476 19.5275 119.903 19.7102 119.498 20.0759C119.11 20.4241 118.916 20.9028 118.916 21.5121C118.916 21.799 118.965 22.0596 119.061 22.2947C119.158 22.5302 119.303 22.7394 119.498 22.9223C119.903 23.2708 120.476 23.4447 121.215 23.4447C121.356 23.4447 121.493 23.4377 121.623 23.4239C121.731 23.4132 121.836 23.3972 121.936 23.3769C122.131 23.3376 122.313 23.282 122.484 23.2096C122.872 23.0357 123.189 22.7484 123.435 22.3477C123.682 21.9474 123.822 21.3903 123.858 20.6766Z" fill="#1E1E1E"/>
<path d="M130.458 25.9765V11.6661H133.815V16.3897C133.976 15.0413 134.382 13.954 135.031 13.1285C135.911 12.0318 137.18 11.4834 138.836 11.4834H139.391V15.087H138.334C137.171 15.087 136.272 15.4003 135.639 16.0272C135.004 16.6365 134.687 17.5244 134.687 18.6906V25.9765H130.458Z" fill="#1E1E1E"/>
<path d="M144.754 19.292H146.154L150.726 25.9772H155.483L149.685 17.767L154.453 11.6668H150.013L144.754 18.4712V6.91406H140.525V25.9772H144.754V19.292Z" fill="#1E1E1E"/>
</g>
<defs>
<clipPath id="clip0_1_6331">
<rect width="156.355" height="32.3878" fill="white"/>
</clipPath>
</defs>
</svg>
