<svg width="90" height="33" viewBox="0 0 90 33" fill="none" xmlns="http://www.w3.org/2000/svg">
<path d="M1.23778 32.6537C1.0413 31.6713 0.844831 30.4139 0.648359 28.8814C0.451886 27.349 0.294709 25.7379 0.176825 24.0482C0.0589417 22.3586 0 20.8457 0 19.5097C0 15.9339 0.392945 12.4367 1.17883 9.01808C1.96472 5.59946 3.06497 2.59343 4.47957 0H23.3409C24.7555 2.59343 25.8558 5.59946 26.6417 9.01808C27.4275 12.4367 27.8205 15.9339 27.8205 19.5097C27.8205 20.8457 27.7615 22.3586 27.6437 24.0482C27.5258 25.7379 27.3686 27.349 27.1721 28.8814C27.015 30.4139 26.8185 31.6713 26.5827 32.6537H16.4447C16.7984 31.1212 17.0735 29.7656 17.2699 28.5867C17.4664 27.4079 17.6236 26.2094 17.7415 24.9913C17.8593 23.7732 17.9576 22.3782 18.0362 20.8064H9.78432C9.86291 22.3782 9.96115 23.7732 10.079 24.9913C10.1969 26.2094 10.3541 27.4079 10.5506 28.5867C10.7863 29.7656 11.0614 31.1212 11.3758 32.6537H1.23778ZM10.079 14.0871H17.7415C17.4664 12.083 16.9949 10.0201 16.3269 7.89819C15.6588 5.77629 14.8533 3.9098 13.9102 2.29873C12.9672 3.9098 12.1616 5.77629 11.4936 7.89819C10.8256 9.9808 10.3541 12.0438 10.079 14.0871Z" fill="#1E1E1E"/>
<path d="M29.2636 32.6537L39.8142 7.07301H29.3226L31.2677 0H53.6655L43.1149 25.5807H53.4887L51.5436 32.6537H29.2636Z" fill="#1E1E1E"/>
<path d="M61.6305 32.6537L64.3418 17.3289H70.0591V17.0931C68.0944 15.5606 66.5226 13.9888 65.3438 12.3778C64.165 10.7667 63.3201 8.95914 62.8093 6.95512C62.2985 4.9511 62.0431 2.63273 62.0431 0H72.4757C72.4757 1.72896 72.574 3.18285 72.7704 4.36169C73.0062 5.54052 73.3992 6.60147 73.9493 7.54454C74.4994 8.48761 75.3049 9.46997 76.3659 10.4916L78.4878 0H88.4489L85.5608 14.0871H81.1402V14.2639C83.1835 15.7178 84.8142 17.2896 86.0323 18.9792C87.2505 20.6689 88.1542 22.614 88.7437 24.8145C89.3331 27.0149 89.6474 29.628 89.6867 32.6537H79.1362C79.1362 29.5887 78.7432 27.1132 77.9573 25.2271C77.1714 23.3016 75.8747 21.612 74.0672 20.1581L71.8274 32.6537H61.6305Z" fill="#1E1E1E"/>
</svg>
