<svg width="133" height="31" viewBox="0 0 133 31" fill="none" xmlns="http://www.w3.org/2000/svg">
<path fill-rule="evenodd" clip-rule="evenodd" d="M11.3353 21.1593C10.3332 21.1593 9.37217 20.7612 8.66357 20.0526C7.95498 19.344 7.55689 18.383 7.55689 17.3808V0H0V17.3808C0 23.641 5.07521 28.7162 11.3353 28.7162H19.6479V21.1593H11.3353ZM34.006 7.55689C33.1129 7.55689 32.2285 7.73281 31.4033 8.0746C30.5781 8.41639 29.8284 8.91737 29.1968 9.54892C28.5653 10.1805 28.0643 10.9302 27.7225 11.7554C27.3807 12.5805 27.2048 13.4649 27.2048 14.3581C27.2048 15.2512 27.3807 16.1356 27.7225 16.9608C28.0643 17.786 28.5653 18.5357 29.1968 19.1673C29.8284 19.7988 30.5781 20.2998 31.4033 20.6416C32.2285 20.9834 33.1129 21.1593 34.006 21.1593C35.8098 21.1593 37.5397 20.4427 38.8152 19.1673C40.0907 17.8918 40.8072 16.1619 40.8072 14.3581C40.8072 12.5543 40.0907 10.8244 38.8152 9.54892C37.5397 8.27344 35.8098 7.55689 34.006 7.55689ZM19.6479 14.3581C19.6479 6.42865 26.0766 0 34.006 0C41.9355 0 48.3641 6.42865 48.3641 14.3581C48.3641 22.2875 41.9355 28.7162 34.006 28.7162C26.0766 28.7162 19.6479 22.2875 19.6479 14.3581ZM115.62 7.55689C113.817 7.55689 112.087 8.27344 110.811 9.54892C109.536 10.8244 108.819 12.5543 108.819 14.3581C108.819 16.1619 109.536 17.8918 110.811 19.1673C112.087 20.4427 113.817 21.1593 115.62 21.1593C117.424 21.1593 119.154 20.4427 120.43 19.1673C121.705 17.8918 122.422 16.1619 122.422 14.3581C122.422 12.5543 121.705 10.8244 120.43 9.54892C119.154 8.27344 117.424 7.55689 115.62 7.55689ZM101.262 14.3581C101.262 6.42865 107.691 0 115.62 0C123.55 0 129.979 6.42865 129.979 14.3581C129.979 22.2875 123.55 28.7162 115.62 28.7162C107.691 28.7162 101.262 22.2875 101.262 14.3581ZM64.2336 0C56.3041 0 49.8755 6.42865 49.8755 14.3581C49.8755 22.2875 56.3041 28.7162 64.2336 28.7162H85.3929C86.8808 28.7162 88.3159 28.4895 89.6655 28.0693L93.7054 30.2276L98.0643 22.0631C99.1715 19.9847 99.7507 17.6659 99.751 15.311V14.3581C99.751 6.42865 93.3223 0 85.3929 0H64.2336ZM92.1941 14.3581C92.1941 12.5543 91.4775 10.8244 90.202 9.54892C88.9266 8.27344 87.1966 7.55689 85.3929 7.55689H64.2336C63.3404 7.55689 62.456 7.73281 61.6309 8.0746C60.8057 8.41639 60.0559 8.91737 59.4244 9.54892C58.7928 10.1805 58.2919 10.9302 57.9501 11.7554C57.6083 12.5805 57.4324 13.4649 57.4324 14.3581C57.4324 15.2512 57.6083 16.1356 57.9501 16.9608C58.2919 17.786 58.7928 18.5357 59.4244 19.1673C60.0559 19.7988 60.8057 20.2998 61.6309 20.6416C62.456 20.9834 63.3404 21.1593 64.2336 21.1593H85.3929C87.1875 21.1593 88.9095 20.4501 90.1834 19.186C91.4574 17.922 92.1801 16.2056 92.1941 14.411V14.3581Z" fill="#1E1E1E"/>
<path d="M133.002 1.88922C133.002 2.39028 132.803 2.87081 132.449 3.2251C132.094 3.5794 131.614 3.77845 131.113 3.77845C130.612 3.77845 130.131 3.5794 129.777 3.2251C129.423 2.87081 129.224 2.39028 129.224 1.88922C129.224 1.38817 129.423 0.907638 129.777 0.55334C130.131 0.199043 130.612 0 131.113 0C131.614 0 132.094 0.199043 132.449 0.55334C132.803 0.907638 133.002 1.38817 133.002 1.88922Z" fill="#1E1E1E"/>
</svg>
