<svg width="20" height="20" viewBox="0 0 20 20" fill="none" xmlns="http://www.w3.org/2000/svg">
<path d="M19.9884 15.1079C19.81 16.463 19.1446 17.7068 18.1162 18.607C17.0879 19.5073 15.767 20.0024 14.4003 20C6.46012 20 9.0488e-06 13.5399 9.0488e-06 5.59985C-0.00244097 4.23313 0.492705 2.91225 1.39297 1.88391C2.29323 0.855574 3.53704 0.190106 4.89209 0.0117978C5.23475 -0.0300417 5.58175 0.0400599 5.8813 0.211638C6.18084 0.383216 6.41686 0.647069 6.55412 0.963807L8.66616 5.67885V5.69085C8.77125 5.93331 8.81465 6.19802 8.79249 6.46134C8.77032 6.72466 8.68329 6.97839 8.53916 7.19987C8.52116 7.22687 8.50216 7.25187 8.48215 7.27687L6.40012 9.74489C7.14913 11.2669 8.74116 12.8449 10.2832 13.5959L12.7172 11.5249C12.7411 11.5048 12.7662 11.4861 12.7922 11.4689C13.0135 11.3213 13.2681 11.2312 13.533 11.2068C13.7979 11.1823 14.0647 11.2243 14.3093 11.3289L14.3223 11.3349L19.0333 13.4459C19.3506 13.5827 19.6151 13.8185 19.7873 14.1181C19.9594 14.4177 20.03 14.7649 19.9884 15.1079Z" fill="white"/>
</svg>
