<svg width="20" height="16" viewBox="0 0 20 16" fill="none" xmlns="http://www.w3.org/2000/svg">
<path d="M19.2308 0H0.769231C0.565218 0 0.369561 0.0842856 0.225302 0.234315C0.0810437 0.384344 0 0.587827 0 0.8V14.4C0 14.8243 0.162087 15.2313 0.450605 15.5314C0.739122 15.8314 1.13044 16 1.53846 16H18.4615C18.8696 16 19.2609 15.8314 19.5494 15.5314C19.8379 15.2313 20 14.8243 20 14.4V0.8C20 0.587827 19.919 0.384344 19.7747 0.234315C19.6304 0.0842856 19.4348 0 19.2308 0ZM7.18365 8L1.53846 13.381V2.619L7.18365 8ZM8.32212 9.085L9.47596 10.19C9.61788 10.3255 9.80351 10.4007 9.99615 10.4007C10.1888 10.4007 10.3744 10.3255 10.5163 10.19L11.6702 9.085L17.2471 14.4H2.74712L8.32212 9.085ZM12.8163 8L18.4615 2.618V13.382L12.8163 8Z" fill="white"/>
</svg>
