<svg width="16" height="20" viewBox="0 0 16 20" fill="none" xmlns="http://www.w3.org/2000/svg">
<path d="M8 0C5.87901 0.00236318 3.84557 0.830934 2.3458 2.30394C0.846033 3.77694 0.00240612 5.77408 0 7.85722C0 14.5805 7.27273 19.6582 7.58273 19.8707C7.70501 19.9549 7.8507 20 8 20C8.1493 20 8.29499 19.9549 8.41727 19.8707C8.72727 19.6582 16 14.5805 16 7.85722C15.9976 5.77408 15.154 3.77694 13.6542 2.30394C12.1544 0.830934 10.121 0.00236318 8 0ZM8 5.00005C8.57536 5.00005 9.13781 5.16762 9.6162 5.48157C10.0946 5.79552 10.4675 6.24175 10.6876 6.76383C10.9078 7.28591 10.9654 7.86039 10.8532 8.41463C10.7409 8.96887 10.4639 9.47796 10.057 9.87755C9.65019 10.2771 9.13184 10.5492 8.56754 10.6595C8.00323 10.7697 7.41831 10.7132 6.88674 10.4969C6.35517 10.2807 5.90083 9.91444 5.58118 9.44458C5.26152 8.97472 5.09091 8.42232 5.09091 7.85722C5.09091 7.09945 5.3974 6.37272 5.94296 5.8369C6.48852 5.30107 7.22846 5.00005 8 5.00005Z" fill="white"/>
</svg>
