<svg width="20" height="20" viewBox="0 0 20 20" fill="none" xmlns="http://www.w3.org/2000/svg">
<path d="M19.9475 1.81253C19.9475 1.81253 19.9475 1.82146 19.9475 1.82592L14.7508 18.9668C14.6721 19.2452 14.5102 19.4928 14.2868 19.6766C14.0633 19.8603 13.789 19.9713 13.5007 19.9946C13.4596 19.9982 13.4186 20 13.3775 20C13.1073 20.0008 12.8425 19.9243 12.6144 19.7796C12.3862 19.6348 12.2042 19.4277 12.0899 19.1829L8.83973 12.5119C8.80721 12.4451 8.79636 12.3697 8.80868 12.2964C8.82101 12.2231 8.8559 12.1555 8.90849 12.1029L14.0802 6.93049C14.2085 6.79542 14.279 6.61556 14.2766 6.42927C14.2742 6.24297 14.1992 6.06498 14.0675 5.93324C13.9357 5.8015 13.7578 5.72643 13.5715 5.72405C13.3852 5.72166 13.2054 5.79215 13.0703 5.92047L7.89593 11.0929C7.84339 11.1455 7.77576 11.1804 7.70245 11.1927C7.62915 11.2051 7.55382 11.1942 7.48698 11.1617L0.810689 7.91193C0.54962 7.78666 0.332772 7.58501 0.188882 7.3337C0.0449912 7.08239 -0.0191484 6.79328 0.00496231 6.50469C0.029073 6.2161 0.140296 5.94164 0.323891 5.7177C0.507487 5.49376 0.754788 5.33089 1.03302 5.2507L18.1715 0.0532582H18.1849C18.4289 -0.0153074 18.6868 -0.0177111 18.9321 0.0462937C19.1773 0.110298 19.4011 0.238407 19.5805 0.417476C19.7599 0.596545 19.8885 0.820127 19.953 1.06528C20.0175 1.31044 20.0156 1.56834 19.9475 1.81253Z" fill="black"/>
</svg>
