<svg width="21" height="18" viewBox="0 0 21 18" fill="none" xmlns="http://www.w3.org/2000/svg">
<path d="M4.00543e-05 8.53316C4.00543e-05 8.85642 0.128456 9.16644 0.357038 9.39503C0.585621 9.62361 0.895643 9.75202 1.21891 9.75202H16.15L10.917 14.984C10.688 15.213 10.5594 15.5235 10.5594 15.8474C10.5594 16.1712 10.688 16.4818 10.917 16.7107C11.146 16.9397 11.4566 17.0683 11.7804 17.0683C12.1042 17.0683 12.4148 16.9397 12.6437 16.7107L19.9569 9.39754C20.0706 9.2843 20.1607 9.14975 20.2222 9.00159C20.2838 8.85344 20.3154 8.69459 20.3154 8.53417C20.3154 8.37375 20.2838 8.21491 20.2222 8.06676C20.1607 7.9186 20.0706 7.78405 19.9569 7.67081L12.6437 0.357617C12.5304 0.244238 12.3958 0.154301 12.2476 0.0929413C12.0995 0.0315813 11.9407 0 11.7804 0C11.62 0 11.4613 0.0315813 11.3131 0.0929413C11.165 0.154301 11.0304 0.244238 10.917 0.357617C10.8036 0.470995 10.7137 0.605595 10.6523 0.753731C10.591 0.901867 10.5594 1.06064 10.5594 1.22098C10.5594 1.38132 10.591 1.54009 10.6523 1.68823C10.7137 1.83636 10.8036 1.97096 10.917 2.08434L16.15 7.31429H1.21891C0.895643 7.31429 0.585621 7.44271 0.357038 7.67129C0.128456 7.89987 4.00543e-05 8.2099 4.00543e-05 8.53316Z" fill="white"/>
</svg>
